<?xml version="1.0" encoding="UTF-8"?>
<svg version="1.1" xmlns="http://www.w3.org/2000/svg" width="3542" height="3542">
<path d="M0 0 C1168.86 0 2337.72 0 3542 0 C3542 1168.86 3542 2337.72 3542 3542 C2373.14 3542 1204.28 3542 0 3542 C0 2373.14 0 1204.28 0 0 Z " fill="#FEFEFE" transform="translate(0,0)"/>
<path d="M0 0 C825.99 0 1651.98 0 2503 0 C2503 826.65 2503 1653.3 2503 2505 C1677.01 2505 851.02 2505 0 2505 C0 1678.35 0 851.7 0 0 Z " fill="#FEFE01" transform="translate(871,873)"/>
<path d="M0 0 C411.97445246 0 411.97445246 0 459.75 4.0625 C460.96065125 4.16337921 462.17130249 4.26425842 463.41864014 4.36819458 C506.13035613 7.98036387 548.93552274 13.75620797 591 22 C593.16268053 22.40277296 595.32544003 22.80512209 597.48828125 23.20703125 C649.53132246 33.17288468 700.87036675 48.02337782 750.93206787 65.28833008 C752.94379028 65.98065567 754.95717417 66.66789806 756.97119141 67.35351562 C787.2473557 77.67585537 816.87952899 89.77370643 846 103 C847.04188477 103.47018555 848.08376953 103.94037109 849.15722656 104.42480469 C877.54563789 117.26981599 905.67557371 130.91898415 932.60351562 146.61816406 C935.64473926 148.37176286 938.72107431 150.05587835 941.80273438 151.73706055 C969.8898268 167.08197537 996.68024324 184.83347228 1023 203 C1023.79776855 203.54897949 1024.59553711 204.09795898 1025.41748047 204.66357422 C1035.81885707 211.83828846 1045.89020487 219.40887746 1055.91015625 227.10546875 C1059.74794367 230.05168536 1063.61471803 232.95416523 1067.50317383 235.83300781 C1074.23627213 240.82170761 1080.70828075 246.02196349 1087.05859375 251.48828125 C1089.64504523 253.69689785 1092.26731668 255.83174568 1094.9375 257.9375 C1104.47218986 265.506434 1113.60193912 273.55764849 1122.5703125 281.78515625 C1124.60515415 283.64006817 1126.66321247 285.45428798 1128.75 287.25 C1138.15381071 295.43979416 1147.17361333 304.06877127 1155.92602539 312.94750977 C1158.58677592 315.63363962 1161.29930443 318.18595295 1164.1875 320.625 C1167.92193509 323.81070177 1171.07130922 327.37262823 1174.30859375 331.0546875 C1177.63576059 334.69573801 1181.11925371 338.15692689 1184.625 341.625 C1188.99841266 345.95992278 1193.2984921 350.28340603 1197.2734375 354.9921875 C1199.1114708 357.12962894 1201.01795214 359.19663073 1202.93603516 361.26220703 C1207.67899076 366.37211 1212.18997901 371.59683106 1216.5625 377.03125 C1219.42927387 380.52283355 1222.39808395 383.91495633 1225.375 387.3125 C1231.51272085 394.35092718 1237.31739962 401.591599 1243 409 C1243.90322998 410.17224121 1243.90322998 410.17224121 1244.82470703 411.36816406 C1249.58615529 417.55152426 1254.30982658 423.7624047 1259 430 C1259.53818359 430.71542969 1260.07636719 431.43085937 1260.63085938 432.16796875 C1315.11389713 505.04696104 1358.60734025 587.29772668 1412.45697021 751.87542725 C1412.94698209 753.79257047 1413.44309301 755.70815231 1413.93994141 757.62353516 C1425.67231373 802.9992965 1432.65310164 850.28534085 1436 897 C1436.10216056 898.3431278 1436.204707 899.6862263 1436.30761719 901.02929688 C1439.45270117 942.83420837 1439.27831749 985.20925755 1436 1027 C1435.90879883 1028.19222168 1435.81759766 1029.38444336 1435.72363281 1030.61279297 C1432.79805778 1067.16195054 1428.05124663 1104.21796111 1420 1140 C1419.82833313 1140.76580383 1419.65666626 1141.53160767 1419.47979736 1142.32061768 C1410.55395272 1182.00711382 1399.7176118 1220.69780441 1386 1259 C1385.75314453 1259.68987 1385.50628906 1260.37973999 1385.25195312 1261.09051514 C1358.02324402 1336.95631834 1319.82271949 1409.44819271 1273 1475 C1272.13212943 1476.22607928 1271.26489065 1477.45260614 1270.3984375 1478.6796875 C1267.95324137 1482.13505929 1265.48206132 1485.5710354 1263 1489 C1262.47970215 1489.72010254 1261.9594043 1490.44020508 1261.42333984 1491.18212891 C1253.71404379 1501.82660545 1245.75230237 1512.18804885 1237.38085938 1522.31933594 C1235.51780455 1524.5868871 1233.69562664 1526.88581347 1231.875 1529.1875 C1227.51570491 1534.65029866 1222.99388159 1539.97253698 1218.45751953 1545.28808594 C1217.00661629 1546.99222891 1215.5633079 1548.70256337 1214.12109375 1550.4140625 C1208.31137247 1557.28266018 1202.33875833 1563.96110775 1196.15893555 1570.49951172 C1193.01099555 1573.83074948 1189.92253908 1577.20293651 1186.87792969 1580.62915039 C1182.21710546 1585.81325778 1177.36818877 1590.77672725 1172.43359375 1595.69921875 C1171.55526382 1596.5785054 1170.6769339 1597.45779205 1169.77198792 1598.36372375 C1167.93035555 1600.20603138 1166.08748084 1602.04709788 1164.2434082 1603.88696289 C1161.43781215 1606.68718845 1158.63761344 1609.49273172 1155.83789062 1612.29882812 C1154.03677896 1614.09927914 1152.23535721 1615.89942001 1150.43359375 1617.69921875 C1149.60629257 1618.52854416 1148.77899139 1619.35786957 1147.92662048 1620.21232605 C1143.65392421 1624.46799973 1139.31465608 1628.57934203 1134.73458862 1632.50352478 C1131.97836688 1634.88138976 1129.34190005 1637.38490199 1126.6875 1639.875 C1121.81760188 1644.41026544 1116.80345476 1648.68680551 1111.61328125 1652.85546875 C1109.00152377 1654.99874956 1106.49634698 1657.2238033 1104 1659.5 C1098.82453026 1664.20423388 1093.4485611 1668.61715487 1088 1673 C1086.89043217 1673.90210662 1085.78106559 1674.80446083 1084.671875 1675.70703125 C1075.09563731 1683.46694948 1065.26541161 1690.86595389 1055.37792969 1698.22314453 C1053.23551241 1699.82401855 1051.10334629 1701.4370414 1048.9765625 1703.05859375 C1000.42787158 1740.01691564 947.30745348 1771.34401302 893 1799 C892.18644043 1799.41507813 891.37288086 1799.83015625 890.53466797 1800.2578125 C881.12375992 1805.04805891 871.60550129 1809.5938525 862.03320312 1814.05175781 C860.119123 1814.94444359 858.2075579 1815.8422579 856.296875 1816.7421875 C853.20371049 1818.1950375 850.10685056 1819.63885487 847.00488281 1821.07275391 C845.64138309 1821.70336423 844.27878411 1822.33592498 842.91699219 1822.97021484 C803.80554595 1841.13850902 763.05027386 1855.88290961 722 1869 C721.26164917 1869.23700623 720.52329834 1869.47401245 719.76257324 1869.71820068 C697.34697481 1876.90243504 674.67416098 1883.03711793 651.87015152 1888.85017395 C649.8552648 1889.36409238 647.84086134 1889.87987121 645.82650757 1890.39587402 C620.9150392 1896.76524672 595.83627635 1902.17568521 570.5 1906.5625 C569.6773465 1906.70619019 568.85469299 1906.84988037 568.0071106 1906.9979248 C551.27663918 1909.90916415 534.48640814 1912.26748272 517.64135742 1914.40429688 C514.2670615 1914.83366355 510.89556665 1915.28114114 507.5246582 1915.73632812 C494.80748304 1917.44584518 482.09755533 1918.9064348 469.3125 1920 C467.88735077 1920.12356873 467.88735077 1920.12356873 466.43341064 1920.24963379 C446.6067933 1921.9402223 426.75126521 1922.88788267 406.875 1923.75 C405.75301901 1923.7989743 405.75301901 1923.7989743 404.60837173 1923.84893799 C400.24941834 1924.03868382 395.89029377 1924.22342621 391.53083611 1924.40122223 C389.56719008 1924.48131578 387.60360848 1924.56298381 385.64002991 1924.64471436 C384.42963547 1924.69202698 383.21924103 1924.7393396 381.97216797 1924.78808594 C380.93478485 1924.8293158 379.89740173 1924.87054565 378.82858276 1924.9130249 C375.30366557 1924.99310154 371.78638266 1925.00849715 368.26071358 1925.00543594 C367.08869805 1925.00465113 365.91668253 1925.00386631 364.70915139 1925.00305772 C363.81513143 1925.00204867 362.92111147 1925.00103962 362 1925 C362.00037972 1926.00470587 362.00075944 1927.00941173 362.00115067 1928.04456323 C362.01781131 1972.30062775 362.03324024 2016.55669261 362.04234314 2060.8127594 C362.0424812 2061.48224667 362.04261925 2062.15173395 362.04276149 2062.84150872 C362.04575405 2077.38951013 362.04852428 2091.93751157 362.05106533 2106.48551306 C362.05231272 2113.61932968 362.05360927 2120.75314629 362.05493164 2127.88696289 C362.0550624 2128.59688241 362.05519316 2129.30680193 362.05532788 2130.03823416 C362.05959305 2153.06960518 362.06710721 2176.10097374 362.07629722 2199.13234327 C362.0857201 2222.79013958 362.09188318 2246.44793454 362.09391499 2270.1057327 C362.09523189 2285.35796407 362.09944446 2300.61018877 362.10791647 2315.86241794 C362.11318186 2325.84732924 362.11480477 2335.83223687 362.11350138 2345.81714945 C362.11285767 2351.5872624 362.11387914 2357.35736304 362.11920547 2363.12747383 C362.12403783 2368.40062118 362.12433974 2373.67374783 362.12089889 2378.94689608 C362.12047304 2380.86345613 362.12177015 2382.78001741 362.12488318 2384.69657498 C362.12884445 2387.28397637 362.1267651 2389.87130115 362.12304783 2392.45870113 C362.12567484 2393.2181382 362.12830186 2393.97757528 362.13100848 2394.76002559 C362.1141458 2399.8858542 362.1141458 2399.8858542 361 2401 C241.87 2401 122.74 2401 0 2401 C0 1608.67 0 816.34 0 0 Z " fill="#0000CB" transform="translate(923,926)"/>
<path d="M0 0 C8.03281659 0.0035605 16.06562915 0.00107099 24.09844574 -0.00145665 C39.09953053 -0.00601099 54.10061191 -0.00592928 69.101697 -0.00317578 C84.26861741 -0.00040893 99.43553557 0.00014342 114.60245612 -0.00191311 C116.04798225 -0.00210687 116.04798225 -0.00210687 117.52271092 -0.00230454 C121.44861995 -0.00283791 125.37452897 -0.00338663 129.300438 -0.00395482 C165.72594723 -0.00922289 202.15145496 -0.00961244 238.57696441 -0.00680737 C239.65264178 -0.00672457 240.72831915 -0.00664178 241.8365928 -0.00655647 C243.45272071 -0.00643208 243.45272071 -0.00643208 245.10149766 -0.00630517 C277.99885293 -0.00377643 310.89620757 -0.00313319 343.79356292 -0.00432782 C346.00125207 -0.0044053 348.20894122 -0.00448245 350.41663038 -0.00455929 C359.28934609 -0.00486978 368.1620618 -0.00518845 377.03477752 -0.00551905 C401.830971 -0.00643573 426.62716449 -0.00700657 451.42335799 -0.00730519 C453.11658302 -0.00732566 453.11658302 -0.00732566 454.84401461 -0.00734654 C490.7743245 -0.00775538 526.70463417 -0.00663107 562.63494399 -0.00445561 C563.79915658 -0.00438536 564.96336917 -0.00431511 566.16286092 -0.00424273 C585.06616794 -0.00309793 603.96947496 -0.0018784 622.87278197 -0.00065256 C697.90529803 0.00420796 772.93781231 0.00397376 847.97032836 -0.00088314 C866.89769271 -0.00210438 885.82505705 -0.00331545 904.75242141 -0.00445561 C905.9179288 -0.00452606 907.0834362 -0.0045965 908.28426201 -0.00466909 C944.20410657 -0.00682534 980.12395099 -0.00773955 1016.04379561 -0.00730519 C1017.73519362 -0.00728481 1017.73519362 -0.00728481 1019.46076129 -0.00726402 C1044.21270973 -0.00695155 1068.96465816 -0.00631792 1093.71660659 -0.00539468 C1102.57230971 -0.00506556 1111.42801282 -0.00475248 1120.28371594 -0.00444397 C1122.48663114 -0.00436658 1124.68954634 -0.00428785 1126.89246155 -0.00420778 C1159.79817357 -0.00301491 1192.7038849 -0.00402915 1225.60959684 -0.00655647 C1227.2265903 -0.00668067 1227.2265903 -0.00668067 1228.8762503 -0.00680737 C1229.95224341 -0.00689005 1231.02823653 -0.00697273 1232.1368355 -0.00705792 C1268.43106393 -0.00981641 1304.72529056 -0.00880082 1341.01951873 -0.00352662 C1344.91758562 -0.00297428 1348.81565251 -0.00243758 1352.7137194 -0.00191311 C1354.14866013 -0.0017178 1354.14866013 -0.0017178 1355.61258956 -0.00151855 C1370.74924776 0.00045249 1385.88590372 -0.00091794 1401.02256172 -0.00368212 C1415.91141116 -0.00632969 1430.80025684 -0.00539467 1445.68910581 -0.00066803 C1454.41269528 0.00199589 1463.13627441 0.00195313 1471.85986338 -0.00214963 C1477.66166899 -0.00460295 1483.46346659 -0.00339656 1489.26527124 0.00071723 C1492.54854885 0.00294513 1495.83180214 0.00312507 1499.11507951 -0.00009929 C1513.55018836 -0.01326588 1527.90958103 0.22786373 1542.31847289 1.12948795 C1542.32947392 74.27987851 1542.34001317 147.43026914 1542.35021117 220.58065982 C1542.35031099 221.29644582 1542.3504108 222.01223181 1542.35051365 222.74970828 C1542.36125443 299.77930324 1542.37155226 376.80889826 1542.4029509 682.37964353 C1542.40315934 684.93057679 1542.40336822 687.48151004 1542.40357723 690.03244329 C1542.40949886 762.31344267 1542.41503255 834.59444207 1542.42004675 906.87544151 C1542.42023233 909.55061295 1542.42041793 912.2257844 1542.42060355 914.90095584 C1542.42066485 915.78451801 1542.42072615 916.66808017 1542.42078931 917.57841695 C1542.4230954 950.80181188 1542.42549013 984.0252068 1542.42793777 1017.24860172 C1542.42820363 1020.85840147 1542.42846847 1024.46820123 1542.4287324 1028.07800099 C1542.43496402 1113.29861427 1542.44279046 1198.51922697 1542.45580199 1283.73983951 C1542.45593886 1284.63701682 1542.45607573 1285.53419412 1542.45621675 1286.45855862 C1542.46077086 1316.29422814 1542.46547965 1346.12989763 1542.47020977 1375.96556713 C1542.47448312 1402.92311825 1542.47870094 1429.88066939 1542.48273566 1456.83822055 C1542.48286822 1457.72377281 1542.48300079 1458.60932507 1542.48313737 1459.52171224 C1542.49142317 1514.96985099 1542.49730405 1570.41798961 1542.50075248 1625.86612888 C1542.50083283 1627.1504489 1542.50083283 1627.1504489 1542.5009148 1628.46071478 C1542.50326531 1666.06128198 1542.50511401 1703.66184919 1542.50638869 1741.26241645 C1542.5069038 1756.3887319 1542.50749326 1771.51504735 1542.50812344 1786.64136279 C1542.50822731 1789.149446 1542.50832877 1791.65752921 1542.50842997 1794.16561242 C1542.5099958 1832.54505802 1542.51322338 1870.92450257 1542.52126077 1909.30394741 C1542.52152087 1910.54613105 1542.52152087 1910.54613105 1542.52178622 1911.81340931 C1542.52458587 1925.13554008 1542.52752372 1938.45767082 1542.53048541 1951.77980155 C1542.53889054 1989.58767617 1542.54636934 2027.39554969 1542.54673841 2065.20342537 C1542.54675034 2066.35351478 1542.54675034 2066.35351478 1542.5467625 2067.52683832 C1542.54691607 2084.25207641 1542.54652371 2100.97731444 1542.54559668 2117.7025525 C1542.54523581 2124.3724929 1542.54494976 2131.04243329 1542.54468825 2137.71237369 C1542.54465778 2138.43996417 1542.54462731 2139.16755466 1542.54459592 2139.91719334 C1542.54366451 2163.01603232 1542.54890224 2186.11486443 1542.55769035 2209.21370161 C1542.56655305 2232.57553673 1542.56856153 2255.93736102 1542.56213652 2279.29919802 C1542.55869461 2292.60052711 1542.56079392 2305.90182814 1542.57090689 2319.20315398 C1542.57707079 2328.02152475 1542.57606702 2336.83987531 1542.56907504 2345.65824543 C1542.56530914 2350.66714837 1542.56473116 2355.67599647 1542.57294338 2360.68489532 C1542.58033086 2365.22578303 1542.57858328 2369.76657033 1542.56942542 2374.30745398 C1542.56775103 2375.93947857 1542.56944474 2377.57151089 1542.57487967 2379.20352729 C1542.62141703 2394.16012291 1542.62141703 2394.16012291 1540.31847289 2401.12948795 C1492.02298036 2401.17803277 1443.72785827 2401.05078161 1395.43254048 2400.9359446 C1383.43795169 2400.90744978 1371.44336121 2400.87970186 1359.4487706 2400.85198476 C1338.07159662 2400.8025675 1316.69442399 2400.75258976 1295.31725219 2400.70224186 C1274.59459664 2400.65343672 1253.87194047 2400.60490657 1233.14928344 2400.55673404 C1231.86439015 2400.55374705 1230.57949687 2400.55076005 1229.25566742 2400.54768254 C1222.80748133 2400.53269408 1216.35929523 2400.51771089 1209.91110912 2400.50273033 C1156.71356179 2400.37913385 1103.51601663 2400.25462036 1050.31847289 2400.12948795 C1051.27630951 2398.36913746 1052.23466693 2396.60907035 1053.19324401 2394.84912296 C1053.7268734 2393.86895521 1054.26050279 2392.88878746 1054.81030276 2391.87891765 C1056.52543467 2388.75219175 1058.29196863 2385.66677465 1060.09581664 2382.59042545 C1060.58776519 2381.75050556 1060.58776519 2381.75050556 1061.08965209 2380.89361759 C1062.14331166 2379.09618921 1063.1995617 2377.30030023 1064.25597289 2375.50448795 C1065.00641028 2374.22553448 1065.75681661 2372.9465628 1066.50719359 2371.66757389 C1070.67896318 2364.5658095 1074.89460305 2357.49248092 1079.15465453 2350.44320865 C1087.17748163 2337.16634497 1094.85180859 2323.72638725 1102.31847289 2310.12948795 C1103.12744018 2308.66817447 1103.12744018 2308.66817447 1103.95275023 2307.17733951 C1123.71898281 2271.39292686 1142.14782091 2234.54964802 1158.47313598 2197.06692691 C1159.34736304 2195.06327424 1160.22735963 2193.06223288 1161.10851195 2191.06161686 C1176.66623771 2155.69354422 1190.77553273 2119.72630844 1203.5663977 2083.26852604 C1204.31097463 2081.15081437 1205.06055427 2079.03493914 1205.81163695 2076.91952701 C1236.3471819 1990.80901414 1259.02320969 1901.28766776 1289.0587683 1677.99295231 C1289.31525171 1675.16500425 1289.58735754 1672.33893648 1289.86290648 1669.51278873 C1290.8312395 1659.36801907 1291.51269973 1649.24643013 1291.86363891 1639.06088443 C1291.90594256 1637.84510715 1291.94824622 1636.62932987 1291.99183181 1635.37671085 C1292.40409984 1622.74226467 1292.49917994 1610.11349394 1292.52159789 1597.47323795 C1292.52857984 1595.00752429 1292.53562077 1592.54181079 1292.54271605 1590.07609745 C1292.56194676 1582.26055859 1292.56688986 1574.4450479 1292.56847289 1566.62948795 C1292.5690499 1565.28645892 1292.56964506 1563.9434299 1292.57025817 1562.60040088 C1292.58488618 1523.3691284 1292.43173009 1484.25970065 1289.31847289 1445.12948795 C1289.24114928 1444.13441227 1289.16382567 1443.13933658 1289.08415893 1442.11410709 C1288.08106007 1429.2484883 1286.89878886 1416.40705566 1285.56914428 1403.57132145 C1285.32225136 1401.1662947 1285.08285635 1398.76064984 1284.84630492 1396.35458561 C1278.34435072 1330.31162762 1266.77683943 1264.65414352 1251.31847289 1200.12948795 C1250.99942992 1198.79727207 1250.99942992 1198.79727207 1250.67394164 1197.43814273 C1231.12908217 1116.0325957 1205.29221298 1036.50577628 1173.31847289 959.12948795 C1173.03012572 958.43138004 1172.74177855 957.73327213 1172.44469359 957.01400943 C1157.54613363 921.01692279 1140.69414249 885.85197542 1123.33534911 850.98901554 C1122.34467938 848.9990061 1121.35510805 847.00844937 1120.36678222 845.01727481 C1113.33902451 830.87073601 1105.97248591 816.94672881 1098.31847289 803.12948795 C1097.63547566 801.89108237 1096.95266846 800.65257194 1096.27013305 799.41391178 C1088.21049148 784.83212875 1079.89960885 770.41024333 1071.31847289 756.12948795 C1070.47566771 754.72618229 1070.47566771 754.72618229 1069.61583617 753.29452701 C1048.8358266 718.76864369 1026.78789131 684.89349869 1003.31847289 652.12948795 C1002.26508441 650.6477193 1001.21169904 649.16594843 1000.15831664 647.68417545 C993.02512679 637.69315101 985.63469671 627.91059027 978.16612914 618.16855045 C975.290201 614.41388619 972.45395891 610.63285192 969.64000609 606.83163639 C963.31809206 598.29998667 956.62252826 590.11595949 949.82970336 581.95663639 C947.89880026 579.62208408 946.0108326 577.25526157 944.13097289 574.87948795 C940.66048382 570.51171431 937.06545244 566.25849984 933.45006469 562.01083561 C930.57185254 558.62522883 927.74023158 555.20810005 924.94347289 551.75448795 C920.29644507 546.04717571 915.47406744 540.50115122 910.63878539 534.9537067 C908.51237968 532.51198082 906.40208612 530.0582669 904.31066039 527.5865192 C898.48187849 520.70262702 892.50322542 514.00484376 886.30113891 507.4537067 C883.42936489 504.41663552 880.6146037 501.34763387 877.87316039 498.19198795 C874.26217068 494.03812394 870.5316485 490.0086802 866.75597289 486.00448795 C866.06704955 485.27238102 865.37812621 484.54027408 864.66832641 483.78598209 C859.53824241 478.35969437 854.29168042 473.06423213 848.98302367 467.81332584 C845.51846504 464.37332078 842.24666651 460.84328397 839.08409789 457.12167545 C833.94337777 451.32130541 828.37394293 445.87558781 822.50206664 440.8208942 C817.28785767 436.29780661 812.50761402 431.36761161 807.67394164 426.4458942 C803.69062826 422.41888816 799.62554245 418.5831798 795.33214477 414.88925357 C790.98827115 411.09310408 786.85394845 407.06485815 782.67394164 403.09042545 C775.79499185 396.57617318 768.65317698 390.39715997 761.44347289 384.25448795 C757.286406 380.70547462 753.17271787 377.12274773 749.13097289 373.44198795 C744.94477988 369.64441546 740.61828275 366.05882851 736.22472289 362.50448795 C733.11454129 359.96283417 730.05958448 357.36340329 727.00597289 354.75448795 C721.42038324 349.99823604 715.69545698 345.44555734 709.90831664 340.9380817 C706.8699664 338.56957784 703.86222806 336.16531396 700.86192992 333.74887272 C683.0731421 319.4256459 664.69233034 305.89157792 646.19347289 292.50448795 C645.5509558 292.03913639 644.90843871 291.57378482 644.24645141 291.0943317 C641.94217815 289.43221449 639.63140039 287.7795477 637.31847289 286.12948795 C636.47535048 285.52761158 636.47535048 285.52761158 635.6151953 284.91357608 C624.40569102 276.92330285 613.06527431 269.13606663 601.65318969 261.43832584 C598.88448194 259.56935667 596.119993 257.6942582 593.35558227 255.81894107 C582.81059884 248.68760765 572.14233116 241.84942811 561.23384765 235.28900333 C557.59957531 233.08891446 554.01519828 230.80999992 550.4236975 228.54110904 C537.56704967 220.42221009 524.5125687 212.68549155 511.31847289 205.12948795 C509.88205443 204.30601871 509.88205443 204.30601871 508.41661742 203.46591373 C488.15112275 191.87235768 467.62672512 180.77823532 446.90050414 170.0318317 C443.26345168 168.14555584 439.63606361 166.2427549 436.01769164 164.3208942 C423.28015125 157.56322339 410.38207033 151.23155107 397.31847289 145.12948795 C395.99049326 144.50712923 394.66253187 143.88473158 393.33458617 143.26230045 C342.41643435 119.42856116 290.43038589 98.55008825 237.31847289 80.12948795 C236.55055419 79.86263187 235.78263549 79.59577579 234.99144652 79.32083316 C193.69152868 64.98743734 151.65855915 52.97135933 109.31847289 42.12948795 C108.50459105 41.92086124 107.69070922 41.71223453 106.8521643 41.4972858 C83.62198541 35.55724057 60.24401002 30.45245797 36.75276854 25.65663334 C31.856764 24.65632397 26.9668196 23.63150979 22.08022216 22.5862598 C12.02657731 20.44128534 1.9488871 18.50130189 -8.18152711 16.75448795 C-9.03060639 16.60774631 -9.87968568 16.46100467 -10.75449464 16.30981632 C-26.1943897 13.66897062 -41.68751139 11.6348144 -57.24402711 9.81698795 C-58.29042359 9.69406376 -59.33682008 9.57113956 -60.41492555 9.44449039 C-75.47982094 7.68970511 -90.56072604 6.30349832 -105.68152711 5.12948795 C-106.01152711 3.80948795 -106.34152711 2.48948795 -106.68152711 1.12948795 C-71.12020432 0.18047855 -35.57146396 -0.01675527 0 0 Z " fill="#0000CB" transform="translate(1779.6815271094092,925.8705120503146)"/>
<path d="M0 0 C1168.86 0 2337.72 0 3542 0 C3542 1168.86 3542 2337.72 3542 3542 C2373.14 3542 1204.28 3542 0 3542 C0 2373.14 0 1204.28 0 0 Z M53 57 C52.99331688 140.6061464 52.98975367 224.21229481 53.03796387 472.46592712 C53.03821122 473.28645599 53.03845857 474.10698486 53.03871341 474.95237823 C53.05157202 517.60674853 53.06518314 560.26111857 53.07909877 602.91548853 C53.08847238 631.64866369 53.0976292 660.38183891 53.10662174 689.1150142 C53.10693177 690.1053781 53.10724181 691.095742 53.10756123 692.11611693 C53.11040493 701.20022178 53.11324663 710.28432662 53.11608595 719.36843146 C53.12316756 742.02510814 53.13027569 764.6817848 53.13740206 787.33846146 C53.1377268 788.37098234 53.13805155 789.40350323 53.13838614 790.46731263 C53.15409732 840.4131501 53.17011264 890.35898747 53.18615723 940.30482483 C53.19165285 957.4130071 53.19714733 974.52118937 53.20263672 991.62937164 C53.20297442 992.68182432 53.20331211 993.734277 53.20366004 994.81862219 C53.21127995 1018.56899424 53.21887745 1042.3193663 53.22640228 1066.06973839 C53.22667419 1066.92780339 53.22694609 1067.78586839 53.22722624 1068.66993536 C53.24434338 1122.70480226 53.26130445 1176.7396692 53.27832031 1230.77453613 C53.35176109 1463.1621909 53.42592366 1695.54984544 53.5 1927.9375 C53.665 2447.708125 53.83 2967.47875 54 3503 C1190.85 3503 2327.7 3503 3499 3503 C3499 2365.49 3499 1227.98 3499 56 C2678.41375 55.9690625 2678.41375 55.9690625 1841.25 55.9375 C1668.45665039 55.928396 1495.66330078 55.91929199 1317.63378906 55.90991211 C1162.86691285 55.90656786 1162.86691285 55.90656786 1008.10003662 55.90455627 C948.44299353 55.90374995 948.44299353 55.90374995 934.13643646 55.90330315 C933.13763422 55.90327255 932.13883197 55.90324195 931.10976299 55.90321042 C905.91610131 55.90241357 880.7224397 55.9006482 855.52877808 55.89871979 C854.4136519 55.89863448 853.29852573 55.89854917 852.14960785 55.89846127 C834.01447326 55.8970694 815.87933868 55.89561375 797.74420409 55.89414941 C745.0879265 55.88989845 692.4316491 55.88619038 639.77537131 55.88597828 C638.69562848 55.88597369 637.61588566 55.88596909 636.50342335 55.88596436 C612.85525915 55.88587344 589.20709496 55.88605531 565.55893077 55.8864972 C556.09488242 55.88666962 546.63083407 55.88680475 537.16678572 55.88692772 C535.61865061 55.8869493 535.61865061 55.8869493 534.03924005 55.88697131 C501.81858065 55.88740285 469.5979225 55.88484536 437.37726343 55.88038147 C405.85416398 55.87602642 374.33106609 55.87481049 342.80796644 55.87790598 C338.44679529 55.87833375 334.08562413 55.87872681 329.72445297 55.87909889 C328.87100083 55.87917303 328.01754868 55.87924716 327.13823435 55.87932354 C314.72830537 55.88031789 302.31837907 55.87857532 289.9084506 55.87511742 C271.69876268 55.87019175 253.48907964 55.86960122 235.27939224 55.87695217 C234.56785079 55.87723111 233.85630933 55.87751004 233.12320601 55.87779743 C173.07865597 55.90248542 113.04109331 56.35511784 53 57 Z " fill="#FFFF02" transform="translate(0,0)"/>
<path d="M0 0 C1.52859869 1.42923977 3.04983174 2.86641044 4.5625 4.3125 C5.2946875 4.98152344 6.026875 5.65054688 6.78125 6.33984375 C24.80875083 23.38344929 36.58970937 46.83183101 43.375 70.4375 C43.5699707 71.10442871 43.76494141 71.77135742 43.96582031 72.45849609 C47.26932044 84.68494235 47.90533067 97.15177672 47.8125 109.75 C47.80685028 110.7665567 47.80685028 110.7665567 47.80108643 111.8036499 C47.52005684 155.03006924 30.60163656 190.12234475 0.38671875 220.5 C-26.32451197 245.45060346 -64.55843249 256.79359014 -100.46484375 256.46484375 C-141.34244562 254.8972661 -176.56899555 238.78683833 -204.5625 209 C-231.02020866 179.03432038 -243.35675177 140.05986134 -241.4375 100.3125 C-241.07556082 94.93493836 -240.34892477 89.62253994 -239.4375 84.3125 C-239.30859375 83.5596875 -239.1796875 82.806875 -239.046875 82.03125 C-232.15984418 43.25981722 -210.45831207 10.84769265 -178.67626953 -12.12890625 C-123.78546296 -50.34296395 -49.31245066 -43.6049911 0 0 Z " fill="#CC0102" transform="translate(2349.4375,554.6875)"/>
<path d="M0 0 C18.81 0 37.62 0 57 0 C61.49983528 10.12462938 61.49983528 10.12462938 63.26391602 14.97973633 C63.86329987 16.62195412 63.86329987 16.62195412 64.47479248 18.29734802 C64.89690002 19.46379349 65.31900757 20.63023895 65.75390625 21.83203125 C66.21132408 23.08877252 66.66903446 24.34540735 67.12701416 25.60194397 C68.10129023 28.27683381 69.07361123 30.95242262 70.04434204 33.62860107 C71.58389653 37.87287082 73.1279014 42.11551306 74.67260742 46.35791016 C76.51760948 51.42588915 78.36165923 56.49421232 80.20428181 61.56305695 C84.34264739 72.94711381 88.49517456 84.32597848 92.65316772 95.70288086 C93.82025416 98.89621663 94.98691408 102.08970802 96.15356445 105.28320312 C101.69844424 120.45770657 107.26760947 135.62320972 112.84356689 150.78631592 C120.47333965 171.53741863 128.05953476 192.30437404 135.63208008 213.07641602 C136.59316644 215.71243709 137.5543568 218.34842023 138.515625 220.984375 C138.86745126 221.94919957 138.86745126 221.94919957 139.22638512 222.93351555 C142.39957641 231.6338399 145.59011969 240.32761396 148.796875 249.015625 C149.51220672 250.95700138 150.22746043 252.89840651 150.94262695 254.83984375 C152.2355211 258.34957863 153.53434232 261.85703762 154.83666992 265.36328125 C155.40048294 266.89313518 155.96405774 268.42307694 156.52734375 269.953125 C156.78235657 270.63425354 157.03736938 271.31538208 157.30010986 272.01715088 C158.33270972 274.83662213 159 276.96849145 159 280 C122.7 280 86.4 280 49 280 C31 232 31 232 31 228 C21.49508672 236.00115088 18.25816973 254.59127734 14.37670898 266.14599609 C13.96751221 267.36109863 13.55831543 268.57620117 13.13671875 269.828125 C12.77280029 270.9202832 12.40888184 272.01244141 12.03393555 273.13769531 C11 276 11 276 9 280 C-27.63 280 -64.26 280 -102 280 C-98.37 270.1 -94.74 260.2 -91 250 C-87.76883322 241.03458625 -87.76883322 241.03458625 -84.54467773 232.06665039 C-77.66833199 212.9169847 -70.64827163 193.85698907 -63 175 C-71.47570532 173.49419885 -79.64384838 172.67357972 -88.25 172.75 C-89.86418823 172.75580078 -89.86418823 172.75580078 -91.51098633 172.76171875 C-99.2961534 172.84531163 -106.87329884 173.44799501 -114.57421875 174.5625 C-117.76300753 174.96973414 -120.79030018 175.07888663 -124 175 C-126.22165387 168.33503839 -127.79023102 161.62636307 -129.1875 154.75 C-129.45578613 153.45497559 -129.45578613 153.45497559 -129.72949219 152.13378906 C-130.61223061 147.68568218 -131.21612753 143.56103622 -131 139 C-128.04304082 138.34728314 -125.08466702 137.70272737 -122.125 137.0625 C-120.89136719 136.78889648 -120.89136719 136.78889648 -119.6328125 136.50976562 C-96.27688589 131.49189077 -73.13917728 134.24986231 -50 139 C-49.82354446 138.38892899 -49.64708893 137.77785797 -49.46528625 137.14826965 C-47.70605466 131.15750941 -45.72516336 125.29770411 -43.54296875 119.44921875 C-43.20733917 118.54119003 -42.87170959 117.63316132 -42.52590942 116.69761658 C-41.79748509 114.72702759 -41.06782965 112.75689333 -40.33706665 110.78717041 C-38.32900374 105.37266644 -36.33191229 99.95412607 -34.3359375 94.53515625 C-33.69834251 92.80425751 -33.69834251 92.80425751 -33.04786682 91.03839111 C-27.02085233 74.65040292 -21.12109977 58.21621515 -15.21222687 41.78535175 C-14.5304942 39.88983926 -13.84851037 37.9944173 -13.16647339 36.09901428 C-12.33942052 33.80007535 -11.51302761 31.50089879 -10.68753052 29.20140076 C-7.17914802 19.44667104 -3.58415857 9.72843039 0 0 Z " fill="#CC0102" transform="translate(623,523)"/>
<path d="M0 0 C84.73484848 0 84.73484848 0 106 7 C107.01320313 7.3196875 108.02640625 7.639375 109.0703125 7.96875 C127.11538465 14.06572261 140.69051509 26.01022384 149.3125 42.9375 C157.30537824 59.22803735 158.98517833 76.68844342 153.984375 94.21484375 C149.36668134 107.27998495 139.74863884 117.44812268 130 127 C130.88429688 127.26941406 131.76859375 127.53882813 132.6796875 127.81640625 C149.37855687 133.76906204 162.94968544 149.1496997 170.375 164.75 C173.50601004 171.71168713 175.31085634 178.12265368 175.3359375 185.77734375 C175.3459227 186.87085899 175.3459227 186.87085899 175.35610962 187.98646545 C175.36618281 189.52521265 175.3709283 191.06400307 175.37060547 192.6027832 C175.3749307 194.90068453 175.4111691 197.19658427 175.44921875 199.49414062 C175.59541019 218.61847493 170.52604119 235.22846978 158 250 C157.22398437 250.97453125 156.44796875 251.9490625 155.6484375 252.953125 C142.83066395 268.28045324 123.58830268 274.1083414 105 279 C70.35 279 35.7 279 0 279 C0 186.93 0 94.86 0 0 Z " fill="#CC0102" transform="translate(295,524)"/>
<path d="M0 0 C17.49 0 34.98 0 53 0 C56.23472052 7.11638513 59.32256613 14.14304293 62.1171875 21.421875 C62.49073364 22.38701019 62.86427979 23.35214539 63.24914551 24.3465271 C64.46092243 27.47980828 65.66804937 30.61485691 66.875 33.75 C67.72973381 35.96347417 68.58471767 38.1768518 69.43994141 40.39013672 C71.57424494 45.91615941 73.70459953 51.44369411 75.83349609 56.97180176 C77.20163475 60.52343588 78.5718736 64.07425658 79.94232178 67.625 C92.39448047 99.89319808 104.70095366 132.21765652 117.01580811 164.53843689 C127.20451013 191.2772821 137.4475818 217.99367067 147.8132019 244.66448975 C148.52605238 246.4988053 149.23840917 248.3333128 149.95022583 250.16802979 C151.64851353 254.54187467 153.35828174 258.91059455 155.09082031 263.27099609 C155.41966217 264.10314133 155.74850403 264.93528656 156.08731079 265.79264832 C156.70414815 267.35236451 157.32497683 268.91051047 157.95053101 270.4667511 C159.13124421 273.46051287 160 275.75072624 160 279 C141.19 279 122.38 279 103 279 C99.91285686 271.59085647 96.86840794 264.20562548 94.01171875 256.7109375 C93.48962578 255.34517075 93.48962578 255.34517075 92.95698547 253.95181274 C92.23265416 252.05499198 91.50928507 250.1578035 90.78686523 248.26025391 C89.67615199 245.34521746 88.55986762 242.43235228 87.44335938 239.51953125 C86.73664185 237.6667953 86.03024942 235.8139353 85.32421875 233.9609375 C84.98992355 233.09020599 84.65562836 232.21947449 84.311203 231.32235718 C84.00700943 230.52036896 83.70281586 229.71838074 83.3894043 228.89208984 C83.12024704 228.18660004 82.85108978 227.48111023 82.57377625 226.75424194 C82 225 82 225 82 223 C45.04 223 8.08 223 -30 223 C-30.99 226.3 -31.98 229.6 -33 233 C-33.95562077 235.60044974 -34.92797477 238.17029589 -35.9609375 240.73828125 C-36.23338287 241.4257695 -36.50582825 242.11325775 -36.78652954 242.82157898 C-37.64545791 244.98679232 -38.50998245 247.14971314 -39.375 249.3125 C-40.23163507 251.46505143 -41.08706625 253.61807705 -41.94204712 255.77128601 C-42.46960916 257.09876983 -42.99826721 258.42581902 -43.52841187 259.75227356 C-46.07846724 266.14681068 -48.5279061 272.57255587 -51 279 C-70.14 279 -89.28 279 -109 279 C-107.19109337 272.97031123 -105.43519089 267.22465411 -103.09375 261.43359375 C-102.6789035 260.39135651 -102.6789035 260.39135651 -102.25567627 259.32806396 C-101.65602412 257.82221753 -101.05459133 256.31707916 -100.45153809 254.81259155 C-98.76503124 250.60297743 -97.09417349 246.38714913 -95.421875 242.171875 C-95.06498596 241.27305099 -94.70809692 240.37422699 -94.34039307 239.44816589 C-90.08510317 228.71733992 -85.91673354 217.9529497 -81.75 207.1875 C-80.94401646 205.10603607 -80.13802683 203.0245745 -79.33203125 200.94311523 C-77.7007302 196.729663 -76.06996892 192.51600225 -74.43945312 188.30224609 C-70.85886619 179.05013379 -67.270948 169.8008647 -63.68347168 160.55142212 C-61.70533699 155.45106859 -59.72769375 150.35052451 -57.75 145.25 C-56.95833568 143.20833242 -56.16666901 141.16666576 -55.375 139.125 C-54.983125 138.114375 -54.59125 137.10375 -54.1875 136.0625 C-50.625 126.875 -50.625 126.875 -49.43763733 123.81286621 C-48.64550207 121.76998304 -47.85337765 119.72709567 -47.06126404 117.6842041 C-45.08935538 112.59861555 -43.11726207 107.51309876 -41.14477539 102.42773438 C-37.07018148 91.9221943 -32.99918941 81.41527586 -28.93359375 70.90625 C-14.61348094 33.89694991 -14.61348094 33.89694991 -9.125 20.0625 C-8.58153931 18.68094727 -8.58153931 18.68094727 -8.02709961 17.27148438 C-5.63808488 11.29751701 -2.90176653 5.80353307 0 0 Z " fill="#CC0102" transform="translate(2531,524)"/>
<path d="M0 0 C18.48 0 36.96 0 56 0 C56 34.98 56 69.96 56 106 C86.03 106 116.06 106 147 106 C147 71.02 147 36.04 147 0 C164.82 0 182.64 0 201 0 C201 92.07 201 184.14 201 279 C182.85 279 164.7 279 146 279 C145.95983633 250.50164596 145.95983633 250.50164596 145.94974613 236.4250412 C145.94420475 228.81200029 145.93716951 221.19897034 145.92456055 213.5859375 C145.91351558 206.91402148 145.90771625 200.24211978 145.90512276 193.57019424 C145.90327437 191.02409809 145.899665 188.47800258 145.89426994 185.93191147 C145.88701653 182.36719101 145.88601089 178.80251962 145.88647461 175.23779297 C145.88287933 174.18402969 145.87928406 173.13026642 145.87557983 172.04457092 C145.8769545 171.06869522 145.87832916 170.09281952 145.87974548 169.08737183 C145.87836279 167.82359365 145.87836279 167.82359365 145.87695217 166.53428459 C146.01610153 163.66837409 146.52829219 160.83024686 147 158 C116.97 158 86.94 158 56 158 C56 197.93 56 237.86 56 279 C37.52 279 19.04 279 0 279 C0 186.93 0 94.86 0 0 Z " fill="#CC0102" transform="translate(1155,524)"/>
<path d="M0 0 C18.48 0 36.96 0 56 0 C56 34.98 56 69.96 56 106 C86.03 106 116.06 106 147 106 C147 71.02 147 36.04 147 0 C164.82 0 182.64 0 201 0 C201 92.07 201 184.14 201 279 C183.18 279 165.36 279 147 279 C147 239.07 147 199.14 147 158 C116.97 158 86.94 158 56 158 C56 197.93 56 237.86 56 279 C37.52 279 19.04 279 0 279 C0 186.93 0 94.86 0 0 Z " fill="#CC0102" transform="translate(1859,524)"/>
<path d="M0 0 C53.70380435 0 53.70380435 0 70 2 C71.10424316 2.12890625 72.20848633 2.2578125 73.34619141 2.390625 C104.63968856 6.14428063 131.60643037 15.43006962 151.875 40.8125 C167.53562065 61.40002528 174.39070453 83.64352308 174.26074219 109.35107422 C174.25005021 111.86320294 174.26067323 114.37461208 174.2734375 116.88671875 C174.28162159 126.10348673 173.81344781 134.92771423 172 144 C171.64421875 145.81371094 171.64421875 145.81371094 171.28125 147.6640625 C167.60464188 161.59840727 160.51207499 175.16285984 151 186 C150.37738281 186.81082031 149.75476563 187.62164062 149.11328125 188.45703125 C134.26626523 206.32284905 109.71315684 216.08683715 87.15039062 218.28125 C85.88388672 218.3946875 84.61738281 218.508125 83.3125 218.625 C82.06533203 218.74617187 80.81816406 218.86734375 79.53320312 218.9921875 C64.65044854 220.40156827 49.78368759 221.16984896 34.84448242 221.55761719 C32.30427648 221.62521885 29.76451069 221.70312173 27.22460938 221.78125 C25.56251688 221.82615005 23.90040781 221.8704418 22.23828125 221.9140625 C21.13459953 221.94990952 21.13459953 221.94990952 20.00862122 221.98648071 C13.2117919 222.14393114 6.8963273 221.53048672 0 221 C0 148.07 0 75.14 0 0 Z " fill="#FEFEFE" transform="translate(563,146)"/>
<path d="M0 0 C0.63341309 0.34643555 1.26682617 0.69287109 1.91943359 1.04980469 C10.96067771 6.03446033 18.84922562 11.77290161 26.51855469 18.67431641 C27.93508243 19.94190798 29.37719901 21.18072879 30.8203125 22.41796875 C35.9388558 26.85658615 40.22323471 31.36555748 44 37 C42.16994917 38.8575016 40.33607989 40.71097232 38.5 42.5625 C37.9946875 43.07619141 37.489375 43.58988281 36.96875 44.11914062 C33.4803039 47.62938951 29.84849339 50.90924236 26.10595703 54.14575195 C21.58788228 58.12381568 17.27195904 62.32482582 12.91601562 66.47851562 C12.19478516 67.16236328 11.47355469 67.84621094 10.73046875 68.55078125 C10.08489014 69.16606689 9.43931152 69.78135254 8.77416992 70.4152832 C7 72 7 72 4 74 C3.32517578 73.18208984 3.32517578 73.18208984 2.63671875 72.34765625 C-15.20483566 51.43120469 -42.70887032 35.9422925 -70.328125 33.73388672 C-83.6530805 33.06353091 -96.42451494 33.16789237 -109 38 C-110.18335938 38.43570313 -111.36671875 38.87140625 -112.5859375 39.3203125 C-125.17925384 44.31939469 -135.25566307 51.69858747 -145 61 C-145.61359375 61.53882813 -146.2271875 62.07765625 -146.859375 62.6328125 C-160.14637453 74.76177079 -166.13065497 91.98626229 -170 109 C-170.17724609 109.62680664 -170.35449219 110.25361328 -170.53710938 110.89941406 C-173.36247013 123.72082966 -171.53714845 139.50679167 -168 152 C-167.82307617 152.62696777 -167.64615234 153.25393555 -167.46386719 153.89990234 C-160.94808908 176.43504166 -147.56244297 194.45158857 -127 206 C-103.46758371 218.29808746 -76.71907407 222.39782858 -50.7734375 215.1953125 C-31.37447537 209.05029965 -15.83685158 197.69020322 -1.18359375 183.875 C1.08128512 181.9302024 3.40210919 180.46102822 6 179 C6.75539063 179.82757812 7.51078125 180.65515625 8.2890625 181.5078125 C19.18313367 193.3500025 30.57404417 204.67492533 42 216 C38.08926659 224.15286683 30.93341887 230.371004 24 236 C22.58074219 237.15822266 22.58074219 237.15822266 21.1328125 238.33984375 C-6.60137423 260.54363718 -39.88073203 272.83736691 -75.45092773 272.52148438 C-78.30084018 272.50008754 -81.1482111 272.52139723 -83.99804688 272.546875 C-122.90430491 272.60787231 -157.69230367 258.590935 -186 232 C-188.48299775 229.43733388 -190.74763939 226.76399344 -193 224 C-193.54527344 223.41476562 -194.09054687 222.82953125 -194.65234375 222.2265625 C-220.46288424 194.48462102 -228.10592436 154.38076294 -227.109375 117.74511719 C-225.59400561 79.7120514 -210.01422422 44.11066935 -181.9765625 18.16015625 C-132.30544857 -26.30200191 -57.50009795 -32.09096376 0 0 Z " fill="#CC0203" transform="translate(1070,538)"/>
<path d="M0 0 C46 0 46 0 53 1 C55.54009776 4.81014664 55.3069585 7.9088778 55.31884766 12.3269043 C55.32889328 13.17590302 55.3389389 14.02490173 55.34928894 14.89962769 C55.38019692 17.70781777 55.39717719 20.5159122 55.4140625 23.32421875 C55.43276803 25.27050097 55.45234097 27.21677503 55.4727478 29.16304016 C55.52414002 34.28727412 55.56372779 39.41153439 55.60089111 44.53588867 C55.64088634 49.76422676 55.6919991 54.99245471 55.7421875 60.22070312 C55.83903073 70.48039147 55.92340863 80.74014189 56 91 C58.2072953 88.33960605 60.41059952 85.67593324 62.61328125 83.01171875 C63.22917114 82.26950073 63.84506104 81.52728271 64.47961426 80.76257324 C69.57319985 74.59559457 74.3835516 68.24897488 79.14453125 61.82421875 C82.26007262 57.62977499 85.47886463 53.52227407 88.7199707 49.42456055 C91.86932158 45.44239749 94.98894991 41.4385829 98.09570312 37.4230957 C104.81140555 28.74926106 111.60889559 20.15117375 118.60595703 11.70214844 C119.86353328 10.16662801 121.08820383 8.60430033 122.30859375 7.0390625 C123.30052734 5.81316406 123.30052734 5.81316406 124.3125 4.5625 C125.11107422 3.54349609 125.11107422 3.54349609 125.92578125 2.50390625 C131.80635459 -1.75978628 142.33358598 -0.12726814 149.25 -0.09765625 C151.13078247 -0.09553383 151.13078247 -0.09553383 153.04956055 -0.09336853 C156.35717967 -0.08874081 159.66474863 -0.07978103 162.97235107 -0.06866455 C166.35786327 -0.05837176 169.74338286 -0.05385417 173.12890625 -0.04882812 C179.75262354 -0.03783447 186.37630768 -0.02112293 193 0 C191.74222624 3.23461621 190.49364226 5.98079316 188.453125 8.79296875 C187.69104736 9.84822754 187.69104736 9.84822754 186.91357422 10.92480469 C186.36459473 11.67149414 185.81561523 12.41818359 185.25 13.1875 C184.67652832 13.97415039 184.10305664 14.76080078 183.51220703 15.57128906 C177.71177329 23.48025673 171.70087278 31.22170326 165.6328125 38.92626953 C164.1159082 40.85279243 162.60380662 42.78295156 161.09375 44.71484375 C155.93395991 51.30984366 150.72019234 57.86008181 145.48217773 64.39306641 C140.72981957 70.32525148 136.03287926 76.29995468 131.34570312 82.28369141 C130.01892378 83.97586463 128.68963877 85.66603377 127.359375 87.35546875 C122.11695057 94.01427087 116.89477697 100.68867209 111.6875 107.375 C111.11281982 108.11202148 110.53813965 108.84904297 109.94604492 109.60839844 C108.83692868 111.03406054 107.73286049 112.46366655 106.63427734 113.89746094 C105.51915036 115.33209996 104.37738146 116.74632548 103.21337891 118.14160156 C100.03729585 121.89302951 100.03729585 121.89302951 98.7578125 126.48046875 C100.69901678 130.41781705 103.23751461 133.81451866 105.875 137.3125 C107.07313299 138.9350778 108.26972228 140.55879651 109.46484375 142.18359375 C110.06409668 142.99554199 110.66334961 143.80749023 111.28076172 144.64404297 C113.73555452 148.00796665 116.09455946 151.4326256 118.4375 154.875 C122.58158373 160.94764719 126.77648891 166.9823099 131 173 C135.59577891 179.55169289 140.16168943 186.1219292 144.68457031 192.72412109 C148.67660671 198.54524122 152.71287256 204.33509322 156.75 210.125 C163.40742474 219.67809208 169.98661714 229.28220316 176.53515625 238.91015625 C179.59400375 243.40727536 182.66701494 247.89440247 185.75 252.375 C186.18143311 253.00293457 186.61286621 253.63086914 187.05737305 254.27783203 C189.38989957 257.67035787 191.73300112 261.05518759 194.0859375 264.43359375 C194.59415039 265.16594238 195.10236328 265.89829102 195.62597656 266.65283203 C196.60147619 268.05825055 197.57984552 269.46168298 198.56152344 270.86279297 C200.42844958 273.55693435 201.95757503 275.87272508 203 279 C194.63789486 279.46669557 186.28134293 279.8202528 177.90937614 280.03624344 C174.01965976 280.14001472 170.13893058 280.28014154 166.25439453 280.50878906 C141.25128732 281.94252218 141.25128732 281.94252218 134.24227905 277.09124756 C129.75777997 272.48428398 126.82170388 267.26370428 124.16482544 261.44941711 C122.47565325 257.89739368 120.32209103 254.8407847 118.0625 251.625 C117.26723265 250.43077539 116.475186 249.2343949 115.6875 248.03515625 C109.88749823 239.29276897 103.92459808 230.65814816 98 222 C97.49823242 221.26604004 96.99646484 220.53208008 96.47949219 219.77587891 C85.93159305 204.35317986 75.26289728 189.01452896 64.26220703 173.91064453 C63.76060059 173.22083496 63.25899414 172.53102539 62.7421875 171.8203125 C62.3076123 171.22492676 61.87303711 170.62954102 61.42529297 170.01611328 C59.56275463 167.38150527 57.78973212 164.68459818 56 162 C55.67 200.61 55.34 239.22 55 279 C36.85 279 18.7 279 0 279 C0 186.93 0 94.86 0 0 Z " fill="#CC0203" transform="translate(1623,524)"/>
<path d="M0 0 C4.5454757 3.44545793 8.74312215 7.13052164 12.80859375 11.12890625 C13.56914062 11.8765625 14.3296875 12.62421875 15.11328125 13.39453125 C31.65410023 30.67940091 39.23852047 52.71238899 39.12109375 76.37890625 C39.1154541 77.56967773 39.10981445 78.76044922 39.10400391 79.98730469 C38.75428371 105.36798848 29.05607352 127.44135592 11.49609375 145.75390625 C-8.17792387 164.82360251 -31.07516989 170.69853693 -57.69921875 170.41015625 C-65.37366783 170.18943583 -71.97610712 168.84129143 -79.19140625 166.12890625 C-80.24070312 165.75507812 -81.29 165.38125 -82.37109375 164.99609375 C-104.06834234 156.65949188 -121.85427389 139.80850764 -132.19140625 119.12890625 C-134.22037574 114.53969098 -135.81559657 109.95233313 -137.19140625 105.12890625 C-137.50980469 104.01773438 -137.82820313 102.9065625 -138.15625 101.76171875 C-144.15411143 76.94107562 -140.24891229 49.95075493 -127.81640625 27.75390625 C-114.70385376 6.4856343 -95.36357064 -8.36434601 -70.99145508 -14.41748047 C-46.1174132 -19.81372463 -20.81845851 -14.57015622 0 0 Z " fill="#FEFEFE" transform="translate(2303.19140625,586.87109375)"/>
<path d="M0 0 C0.79615723 0.14953125 1.59231445 0.2990625 2.41259766 0.453125 C33.4016818 6.56743619 59.8508558 24.52284709 84 44 C85.66644724 45.33360757 87.33303165 46.66704386 89 48 C88.44686621 51.88949634 86.71871007 53.62670023 83.9375 56.3125 C83.12667969 57.09625 82.31585937 57.88 81.48046875 58.6875 C76.48453262 63.34512865 71.34674105 67.75026271 66 72 C65.21302734 71.23429687 65.21302734 71.23429687 64.41015625 70.453125 C52.69876246 59.46273216 39.22640528 50.41159138 25 43 C24.37754395 42.6704834 23.75508789 42.3409668 23.11376953 42.00146484 C6.78904814 33.46984964 -11.5191973 27.07468842 -30 26 C-30.71591309 25.95230469 -31.43182617 25.90460937 -32.16943359 25.85546875 C-64.53185255 23.94093731 -97.77845936 35.49489382 -122 57 C-123.24136719 58.00933594 -123.24136719 58.00933594 -124.5078125 59.0390625 C-144.54938399 75.81366936 -158.68997057 104.05124837 -161 130 C-162.95639767 160.35706968 -154.14159907 190.56595964 -134.4375 214.0546875 C-131.72219716 217.13346377 -128.88913412 220.08469254 -126 223 C-125.14664063 223.86625 -124.29328125 224.7325 -123.4140625 225.625 C-100.53604319 247.60988342 -68.81575771 258.61321721 -37.49145508 258.44604492 C-35.06701003 258.43751587 -32.64491914 258.46647455 -30.22070312 258.49804688 C-1.4630316 258.62592423 24.54871641 246.89691374 45.25 227.1875 C59.41230318 212.42937176 67.22183508 194.86022217 71 175 C69.85019653 175.16265854 68.70039307 175.32531708 67.51574707 175.49290466 C63.24078649 176.02463701 59.05136062 176.13503473 54.74804688 176.11352539 C53.57586609 176.11374443 53.57586609 176.11374443 52.38000488 176.1139679 C49.82622389 176.11327755 47.27251808 176.10552675 44.71875 176.09765625 C42.93656453 176.09578895 41.15437855 176.09436652 39.37219238 176.09336853 C34.70335448 176.08956796 30.03454816 176.07975891 25.36572266 176.06866455 C20.59277778 176.05839731 15.81982776 176.05385957 11.046875 176.04882812 C1.69790063 176.03813423 -7.65104211 176.02055759 -17 176 C-17 166.43 -17 156.86 -17 147 C22.93 147 62.86 147 104 147 C104 186.05636208 95.09299022 222.56441234 67 251 C64.41853539 253.44504575 61.74130233 255.73677266 59 258 C58.27425781 258.62519531 57.54851562 259.25039062 56.80078125 259.89453125 C45.50774101 269.35828563 32.94234952 276.29402672 19 281 C18.33194336 281.22671387 17.66388672 281.45342773 16.97558594 281.68701172 C-24.0420146 295.1956291 -73.49763452 291.84313589 -112.24951172 272.90039062 C-125.57376218 266.07054121 -137.13768823 257.29846658 -148 247 C-148.95777344 246.10667969 -149.91554688 245.21335937 -150.90234375 244.29296875 C-174.89910641 221.461286 -190.69952004 189.29577742 -192.17700195 156.01269531 C-192.20307743 154.61793271 -192.22327808 153.22305065 -192.23828125 151.828125 C-192.2480751 151.07196899 -192.25786896 150.31581299 -192.26795959 149.53674316 C-192.59224737 118.04188181 -192.59224737 118.04188181 -188 103 C-187.67854004 101.91332031 -187.67854004 101.91332031 -187.35058594 100.8046875 C-176.04697452 63.55377591 -150.12702388 31.65928336 -115.875 13.25 C-79.72742926 -5.42657248 -39.42787023 -7.43295988 0 0 Z " fill="#0101CC" transform="translate(695,2428)"/>
<path d="M0 0 C3.48203837 -0.11253392 6.63777494 0.0423844 10 1 C12.39785515 3.31472053 13.44497487 6.0203502 14.67578125 9.08203125 C15.04808365 9.91468506 15.42038605 10.74733887 15.80397034 11.60522461 C17.01086786 14.32625625 18.16090405 17.06766567 19.3125 19.8125 C20.14002455 21.70252948 20.97159814 23.5907911 21.80712891 25.47729492 C23.46889189 29.24026783 25.11148441 33.01063595 26.73779297 36.7890625 C29.64800162 43.5287825 32.74892907 50.17057009 35.875 56.8125 C36.90880791 59.03457241 37.94137636 61.25722194 38.97265625 63.48046875 C39.47168457 64.55474121 39.97071289 65.62901367 40.48486328 66.73583984 C42.0320955 70.06914547 43.57686898 73.40358139 45.12109375 76.73828125 C51.37757631 90.24270556 57.68381398 103.72242077 64.02993774 117.18487549 C69.08043583 127.90003431 74.08894661 138.63348571 79.06640625 149.3828125 C83.34166295 158.60560215 87.66550177 167.80494041 92 177 C98.523123 190.8396276 104.98985914 204.70426903 111.41894531 218.58789062 C113.58311968 223.25844358 115.75268136 227.92648597 117.92236328 232.59448242 C119.5387202 236.07381219 121.15230513 239.5544174 122.765625 243.03515625 C124.70582397 247.21937656 126.6539402 251.39968921 128.61305237 255.57507324 C129.46979956 257.40250452 130.32409163 259.23106145 131.17749023 261.06005859 C132.24538861 263.34766053 133.31762997 265.63324148 134.39477539 267.91650391 C135.10621704 269.44476807 135.10621704 269.44476807 135.83203125 271.00390625 C136.25202393 271.89924072 136.6720166 272.7945752 137.10473633 273.71704102 C138 276 138 276 138 279 C127.44 279 116.88 279 106 279 C100.65315971 268.34795222 95.37718845 257.66682902 90.1875 246.9375 C89.48763978 245.49218286 88.78776985 244.04687043 88.08789062 242.6015625 C82.75876901 231.59099973 77.45352429 220.5691623 72.20068359 209.52197266 C70.98807251 206.97494694 69.76959627 204.43078051 68.55078125 201.88671875 C67.80439645 200.32045116 67.0582862 198.7540527 66.3125 197.1875 C65.97283203 196.48109375 65.63316406 195.7746875 65.28320312 195.046875 C63 190.22839537 63 190.22839537 63 188 C24.06 188 -14.88 188 -55 188 C-55.33 189.65 -55.66 191.3 -56 193 C-56.91479002 195.04958183 -57.8965958 197.06980187 -58.921875 199.06640625 C-59.21794647 199.64879059 -59.51401794 200.23117493 -59.81906128 200.83120728 C-60.45768483 202.08727115 -61.09874901 203.34209654 -61.74200439 204.59579468 C-63.47137141 207.9699714 -65.17839052 211.35535582 -66.8828125 214.7421875 C-67.23117157 215.43432846 -67.57953064 216.12646942 -67.93844604 216.83958435 C-71.30587522 223.55937492 -74.48684368 230.35745211 -77.625 237.1875 C-82.08785004 246.89350586 -86.62007119 256.56037445 -91.25 266.1875 C-91.81154785 267.35885498 -92.3730957 268.53020996 -92.95166016 269.73706055 C-93.72582275 271.34254761 -93.72582275 271.34254761 -94.515625 272.98046875 C-94.97227539 273.92817139 -95.42892578 274.87587402 -95.89941406 275.85229492 C-97 278 -97 278 -98 279 C-100.44830426 279.08843793 -102.86820599 279.11528752 -105.31640625 279.09765625 C-106.04746078 279.0962413 -106.77851532 279.09482635 -107.53172302 279.09336853 C-109.87535632 279.08775408 -112.21889539 279.07519922 -114.5625 279.0625 C-116.14778508 279.05748686 -117.73307166 279.05292363 -119.31835938 279.04882812 C-123.2122761 279.03777997 -127.10612205 279.02050572 -131 279 C-129.60539443 274.53760087 -127.86987731 270.39469943 -125.8671875 266.171875 C-125.55862823 265.51866272 -125.25006897 264.86545044 -124.93215942 264.19244385 C-123.91621714 262.04347468 -122.89558003 259.89676997 -121.875 257.75 C-121.15458788 256.22803495 -120.43454224 254.70589638 -119.71484375 253.18359375 C-118.2198432 250.0221124 -116.72327061 246.86138251 -115.22558594 243.70117188 C-112.13291766 237.17239184 -109.05944774 230.63459897 -105.98590088 224.09680176 C-104.32485156 220.56410268 -102.66234697 217.03208858 -101 213.5 C-100.33332648 212.08333656 -99.66665981 210.66666989 -99 209.25 C-95 200.74999999 -95 200.74999999 -93.99996948 198.62493896 C-93.33340062 197.20847759 -92.66683568 195.79201438 -92.00027466 194.37554932 C-90.33214371 190.8307265 -88.66394438 187.28593589 -86.99560547 183.74121094 C-84.01299541 177.40387998 -81.03083117 171.06634165 -78.05128479 164.72756958 C-68.13513245 143.63170316 -58.17464734 122.55712482 -48.18408203 101.49639893 C-46.97661247 98.95069209 -45.76951608 96.40480859 -44.5625 93.85888672 C-42.10526115 88.67623822 -39.6468981 83.49412419 -37.1875 78.3125 C-36.7864505 77.46753967 -36.385401 76.62257935 -35.97219849 75.75201416 C-30.55472256 64.3416142 -25.09292852 52.9540116 -19.59326172 41.58300781 C-15.00931632 32.07743057 -10.5582906 22.51189356 -6.13525391 12.93066406 C-5.62269043 11.82045898 -5.11012695 10.71025391 -4.58203125 9.56640625 C-4.13061768 8.58615479 -3.6792041 7.60590332 -3.21411133 6.59594727 C-2.17668849 4.37778579 -1.09997273 2.18746786 0 0 Z " fill="#0101CC" transform="translate(647,1501)"/>
<path d="M0 0 C1.25391037 -0.00692368 2.50782074 -0.01384735 3.79972839 -0.02098083 C7.74933143 -0.03790904 11.69880009 -0.04454897 15.6484375 -0.046875 C16.32380428 -0.04761143 16.99917107 -0.04834785 17.69500351 -0.0491066 C38.27932445 -0.06731356 58.6135002 0.25718199 79.0234375 3.203125 C79.89387695 3.32059082 80.76431641 3.43805664 81.66113281 3.55908203 C114.07646969 8.02904117 144.51258026 23.16869759 165.0234375 49.203125 C189.66304226 81.72660492 198.22464322 123.27707071 193.19677734 163.39990234 C192.60754031 167.36509282 191.85358322 171.28199381 191.0234375 175.203125 C190.85714844 176.01894043 190.69085937 176.83475586 190.51953125 177.67529297 C183.73261982 210.15820516 166.56415319 239.04848662 138.6875 257.8515625 C122.54333011 268.36986453 106.00312896 273.49546579 87.0234375 276.203125 C86.33137207 276.30222168 85.63930664 276.40131836 84.92626953 276.50341797 C66.38604961 279.07639958 47.78029892 279.36913108 29.08837891 279.33349609 C25.84662953 279.32824359 22.60502584 279.33341858 19.36328125 279.33984375 C-0.77561052 279.32793429 -20.82381568 278.7198621 -40.9765625 278.203125 C-40.9765625 186.793125 -40.9765625 95.383125 -40.9765625 1.203125 C-10.79374433 0.04224738 -10.79374433 0.04224738 0 0 Z M-11.9765625 29.203125 C-11.9765625 102.133125 -11.9765625 175.063125 -11.9765625 250.203125 C2.52108212 251.08993362 2.52108212 251.08993362 16.98339844 251.08837891 C17.66108276 251.06688782 18.33876709 251.04539673 19.0369873 251.02325439 C20.08215515 250.98854034 20.08215515 250.98854034 21.1484375 250.953125 C21.8767981 250.93078796 22.60515869 250.90845093 23.35559082 250.88543701 C35.84794014 250.49217552 48.3095349 249.74732467 60.7734375 248.828125 C61.58169983 248.7710437 62.38996216 248.7139624 63.22271729 248.65515137 C89.59867515 246.76052608 113.76284496 240.31640899 133.0234375 221.203125 C133.9309375 220.336875 134.8384375 219.470625 135.7734375 218.578125 C136.8871875 217.4025 136.8871875 217.4025 138.0234375 216.203125 C138.69052734 215.52830078 138.69052734 215.52830078 139.37109375 214.83984375 C154.9310846 198.11804025 162.0349113 174.00570531 162.26171875 151.64453125 C162.27382637 150.46249367 162.27382637 150.46249367 162.28617859 149.25657654 C162.29990868 147.59693526 162.31067949 145.93726705 162.31860352 144.27758789 C162.33004892 142.61897195 162.35038081 140.96039063 162.38012695 139.30200195 C162.91569162 109.29542095 152.5730265 82.6388328 131.75146484 60.91943359 C111.12792389 40.43575277 86.0734147 34.58014928 58.0234375 31.203125 C57.05422363 31.08308105 56.08500977 30.96303711 55.08642578 30.83935547 C32.7847794 28.20894508 10.49420723 29.203125 -11.9765625 29.203125 Z " fill="#0202CC" transform="translate(574.9765625,116.796875)"/>
<path d="M0 0 C8.21791045 0 8.21791045 0 11 2 C13.0078125 4.21484375 13.0078125 4.21484375 15.125 6.9375 C18.29541471 10.92390669 21.54377896 14.7584523 25 18.5 C28.27418423 22.05670244 31.40642433 25.67161811 34.4375 29.4375 C38.09571015 33.97316443 41.94742965 38.2570117 45.91381836 42.51928711 C49.69490558 46.60661006 53.19689966 50.88043244 56.6875 55.21875 C59.1997101 58.24019188 61.82400827 61.12441773 64.5 64 C68.76918152 68.58760113 72.75758517 73.33442728 76.6875 78.21875 C79.1997101 81.24019188 81.82400827 84.12441773 84.5 87 C88.76918152 91.58760113 92.75758517 96.33442728 96.6875 101.21875 C99.19971133 104.24019336 101.82402457 107.12440078 104.5 110 C108.7895776 114.61001639 112.80410897 119.37783236 116.75390625 124.28515625 C119.0883059 127.10673495 121.51990598 129.80590712 124 132.5 C127.27418423 136.05670244 130.40642433 139.67161811 133.4375 143.4375 C137.09635769 147.9739673 140.94868963 152.258661 144.91601562 156.52148438 C147.8870119 159.73281228 150.69953832 163.02618789 153.4375 166.4375 C156.80346662 170.62237799 160.33179641 174.58310464 164 178.5 C168.40345407 183.20274484 172.57604184 188.01648358 176.57421875 193.07421875 C180.24460402 197.50114076 184.15305339 201.72561487 188 206 C188.33 138.02 188.66 70.04 189 0 C199.23 0 209.46 0 220 0 C219.505 138.6 219.505 138.6 219 280 C205.53853991 277.75642332 195.54660487 262.01506605 187.3125 251.78125 C184.8002899 248.75980812 182.17599173 245.87558227 179.5 243 C175.23081848 238.41239887 171.24241483 233.66557272 167.3125 228.78125 C164.8002899 225.75980812 162.17599173 222.87558227 159.5 220 C155.23081848 215.41239887 151.24241483 210.66557272 147.3125 205.78125 C144.35823636 202.22814914 141.23086576 198.8597632 138.08374023 195.47827148 C135.11284372 192.2670095 132.30038923 188.97372185 129.5625 185.5625 C126.19653735 181.37762693 122.66823983 177.41685602 119 173.5 C114.54127805 168.73908666 110.36202376 163.83532437 106.27734375 158.74609375 C103.7817361 155.73681042 101.16236519 152.86059714 98.5 150 C95.04838064 146.29138312 91.73477852 142.51494105 88.5625 138.5625 C85.19653735 134.37762693 81.66823983 130.41685602 78 126.5 C73.54127805 121.73908666 69.36202376 116.83532437 65.27734375 111.74609375 C62.78173138 108.73680474 60.16226541 105.86069513 57.5 103 C52.41316127 97.53085188 47.68632899 91.81656127 43 86 C41.94504682 84.70216225 40.8834914 83.40963476 39.8125 82.125 C39.40644531 81.63257813 39.00039063 81.14015625 38.58203125 80.6328125 C36.24541183 78.22119048 33.57963525 76.14969604 31 74 C31 141.65 31 209.3 31 279 C20.77 279 10.54 279 0 279 C0 186.93 0 94.86 0 0 Z " fill="#0101CC" transform="translate(541,1040)"/>
<path d="M0 0 C7.89400922 0 7.89400922 0 10.875 2.875 C11.54402344 3.51695313 12.21304688 4.15890625 12.90234375 4.8203125 C18.33086434 10.4611216 23.45340831 16.28661384 28.375 22.375 C32.05571847 26.92780507 35.92648648 31.23417411 39.91137695 35.5168457 C43.71385014 39.62760957 47.24263299 43.92266523 50.75390625 48.28515625 C53.0883059 51.10673495 55.51990598 53.80590712 58 56.5 C61.27418423 60.05670244 64.40642433 63.67161811 67.4375 67.4375 C71.09571015 71.97316443 74.94742965 76.2570117 78.91381836 80.51928711 C82.69490558 84.60661006 86.19689966 88.88043244 89.6875 93.21875 C92.1997101 96.24019188 94.82400827 99.12441773 97.5 102 C101.76918152 106.58760113 105.75758517 111.33442728 109.6875 116.21875 C112.1997101 119.24019188 114.82400827 122.12441773 117.5 125 C121.76918152 129.58760113 125.75758517 134.33442728 129.6875 139.21875 C132.1997101 142.24019188 134.82400827 145.12441773 137.5 148 C141.76918152 152.58760113 145.75758517 157.33442728 149.6875 162.21875 C152.1997101 165.24019188 154.82400827 168.12441773 157.5 171 C160.9741715 174.73329478 164.30068494 178.52370843 167.5 182.5 C171.60300303 187.59923578 175.95916453 192.39337368 180.421875 197.17578125 C183.03587716 200.0393018 185.51787066 203.02144479 188 206 C188.33 138.02 188.66 70.04 189 0 C198.9 0 208.8 0 219 0 C219 92.4 219 184.8 219 280 C208.87487311 276.6249577 208.87487311 276.6249577 206.3046875 273.70703125 C205.45463135 272.76815063 205.45463135 272.76815063 204.58740234 271.81030273 C204.02230957 271.15102783 203.4572168 270.49175293 202.875 269.8125 C201.96355225 268.79168335 201.96355225 268.79168335 201.03369141 267.75024414 C199.33973253 265.84687604 197.66795234 263.92613927 196 262 C195.3296875 261.24976562 194.659375 260.49953125 193.96875 259.7265625 C192.28672754 257.83840983 190.64017176 255.92465551 189 254 C187.06382881 251.72802986 185.12629328 249.45723305 183.1875 247.1875 C182.41128296 246.27798584 182.41128296 246.27798584 181.61938477 245.35009766 C178.41472075 241.60890618 175.14775173 237.93867711 171.8125 234.3125 C168.60354956 230.81740111 165.53934163 227.2571616 162.5625 223.5625 C158.90428985 219.02683557 155.05257035 214.7429883 151.08618164 210.48071289 C147.30509442 206.39338994 143.80310034 202.11956756 140.3125 197.78125 C137.8002899 194.75980812 135.17599173 191.87558227 132.5 189 C128.23081848 184.41239887 124.24241483 179.66557272 120.3125 174.78125 C117.8002899 171.75980812 115.17599173 168.87558227 112.5 166 C108.23081848 161.41239887 104.24241483 156.66557272 100.3125 151.78125 C97.35823636 148.22814914 94.23086576 144.8597632 91.08374023 141.47827148 C88.11284372 138.2670095 85.30038923 134.97372185 82.5625 131.5625 C78.20258694 126.14587552 73.52524121 121.08061704 68.78515625 116 C66.02653661 113.04123978 63.35388674 110.01604915 60.70703125 106.95703125 C58.66366569 104.6144085 56.58319141 102.30726578 54.5 100 C51.24100623 96.38868258 48.02071819 92.7481153 44.828125 89.078125 C41.92928269 85.78285981 38.97092309 82.54150298 36.015625 79.296875 C34.24566225 77.2799407 32.6100575 75.14674333 31 73 C31 140.98 31 208.96 31 279 C10 279 10 279 0 278 C0 186.26 0 94.52 0 0 Z " fill="#0101CC" transform="translate(541,1963)"/>
<path d="M0 0 C1168.86 0 2337.72 0 3542 0 C3542 1.65 3542 3.3 3542 5 C3453.48425859 5.02609413 3364.96851717 5.05218257 3230.52905273 5.09179688 C3229.51291088 5.09209628 3228.49676903 5.09239569 3227.449835 5.09270417 C3118.06007019 5.1249361 3008.67030538 5.15715974 2574.27770999 5.28494484 C2570.64787001 5.28601163 2567.01803004 5.28707843 2563.38819006 5.28814522 C2460.51162584 5.31838027 2357.63506161 5.34860807 2254.75849738 5.37882619 C2250.94994619 5.37994488 2247.141395 5.38106358 2243.33284381 5.38218227 C2241.44599748 5.3827365 2241.44599748 5.3827365 2239.52103304 5.38330192 C2192.22650478 5.39719385 2144.93197651 5.41108744 2097.63744825 5.42498201 C2092.49913227 5.42649159 2087.36081629 5.42800114 2082.22250031 5.42951068 C1961.07655618 5.46510106 1839.93061206 5.50072093 1718.78466797 5.53643799 C1716.87521514 5.53700094 1716.87521514 5.53700094 1714.9271875 5.53757527 C1672.60107959 5.55005411 1630.27497168 5.56253585 1587.94886377 5.57501799 C1549.70351364 5.58629668 1511.45816351 5.59757434 1473.21281338 5.60884857 C1471.95619275 5.60921901 1470.69957213 5.60958944 1469.40487209 5.6099711 C1390.58223958 5.63320675 1311.75960706 5.65639724 1232.93697453 5.67954254 C1231.71767526 5.67990058 1230.498376 5.68025862 1229.24212827 5.68062751 C1175.66616048 5.69635966 1122.09019269 5.71208245 1068.51422489 5.72779456 C1046.95217028 5.73411806 1025.39011568 5.74044295 1003.82806107 5.74676859 C1000.25323655 5.74781733 996.67841203 5.74886601 993.10358751 5.7499147 C938.55735189 5.76591627 884.01111628 5.78194832 829.4648807 5.79807091 C827.70647637 5.79859065 827.70647637 5.79859065 825.91254872 5.79912089 C807.06044126 5.80469332 788.2083338 5.81026833 769.35622635 5.8158438 C715.69193013 5.83171488 662.0276339 5.84756776 608.36333764 5.86328888 C607.26916062 5.86360943 606.17498361 5.86392998 605.04764971 5.86426025 C581.14697834 5.87126184 557.24630696 5.87825325 533.34563558 5.88523477 C523.80562539 5.88802162 514.2656152 5.89080986 504.72560501 5.89359856 C503.16481887 5.89405475 503.16481887 5.89405475 501.57250169 5.89452015 C468.8470967 5.90408583 436.12169175 5.91376462 403.39628682 5.92351216 C371.03337347 5.93315125 338.67046009 5.94267254 306.30754666 5.95203453 C301.82026338 5.95333263 297.3329801 5.95463203 292.84569681 5.9559322 C291.96761924 5.95618657 291.08954167 5.95644094 290.18485569 5.95670302 C277.45186752 5.96039474 264.71887939 5.96418771 251.98589128 5.96804518 C233.31072586 5.9736973 214.63556041 5.97918666 195.96039486 5.98438263 C194.8626541 5.98468852 194.8626541 5.98468852 193.74273675 5.98500058 C129.16182436 6.00295162 64.58091446 6.00428941 0 6 C0 4.02 0 2.04 0 0 Z " fill="#FFFFFE" transform="translate(0,0)"/>
<path d="M0 0 C2.93968124 2.55201284 4.39064983 5.40830696 6.1171875 8.87109375 C6.55738976 9.7495269 6.55738976 9.7495269 7.00648499 10.64570618 C7.96935946 12.57304942 8.92262376 14.50495 9.875 16.4375 C10.5449595 17.78745661 11.21496335 19.13739121 11.88500977 20.48730469 C20.470591 37.84322747 28.61272603 55.41189759 36.37866211 73.1496582 C38.71106085 78.44872115 41.2613928 83.5953465 43.96875 88.71484375 C45 91 45 91 45 94 C15.96 94 -13.08 94 -43 94 C-41.01794859 88.05384578 -39.13135015 82.88068677 -36.28125 77.42578125 C-35.56635689 76.02624289 -34.85285089 74.62599525 -34.140625 73.22509766 C-33.78226563 72.5219342 -33.42390625 71.81877075 -33.0546875 71.09429932 C-30.07934085 65.18613556 -27.30800705 59.17641941 -24.5 53.1875 C-24.16693848 52.47885803 -23.83387695 51.77021606 -23.49072266 51.0401001 C-15.52519368 34.0888938 -7.74857695 17.05122941 0 0 Z " fill="#FDFDFE" transform="translate(650,1565)"/>
<path d="M0 0 C16.32062983 0.0069255 34.89805099 2.05953937 47.20703125 13.9609375 C54.71368469 21.95749885 57.07367431 29.11236995 56.98071289 39.93237305 C56.6792116 47.00316563 54.78690231 52.45715569 50.05078125 57.8203125 C38.43471747 68.44980648 22.46122083 68.42301859 7.6875 68.375 C5.87958984 68.38080078 5.87958984 68.38080078 4.03515625 68.38671875 C2.87371094 68.38542969 1.71226562 68.38414062 0.515625 68.3828125 C-0.53206055 68.38168457 -1.57974609 68.38055664 -2.65917969 68.37939453 C-5.40643277 68.25695557 -7.87934059 67.81927168 -10.5625 67.25 C-10.58562635 58.6619428 -10.60341658 50.07389851 -10.61431217 41.48581791 C-10.61954036 37.498428 -10.62663684 33.51105933 -10.63793945 29.52368164 C-10.64877061 25.67874886 -10.65477732 21.83383655 -10.65737724 17.98888969 C-10.65923108 16.51881017 -10.66285091 15.04873182 -10.66823006 13.57866096 C-10.67544355 11.52645533 -10.67649081 9.47433533 -10.67602539 7.42211914 C-10.678246 6.25185684 -10.68046661 5.08159454 -10.68275452 3.87586975 C-10.4223622 -1.81003972 -4.53063866 0.01372802 0 0 Z " fill="#FEFDFD" transform="translate(360.5625,681.75)"/>
<path d="M0 0 C15.7803789 4.13002104 30.97046889 10.98416001 45.60229492 18.10864258 C53.69191052 21.1159928 63.6884574 14.27588181 71.00732422 10.92578125 C72.85572001 10.06703133 74.69582658 9.19050046 76.53515625 8.3125 C84.7007719 4.41947704 92.78976303 0.70395667 102 1 C104.59685059 6.48224013 106.7948195 12.01354111 108.75 17.75 C108.97260498 18.38752197 109.19520996 19.02504395 109.42456055 19.68188477 C110.60863749 23.23039938 111.25706565 26.2582666 111 30 C110.06800781 30.23074219 109.13601563 30.46148438 108.17578125 30.69921875 C88.40546172 35.75674235 69.71587639 44.02771411 53.05859375 55.953125 C51 57 51 57 49.125 56.94921875 C46.67290885 55.85389127 44.56529414 54.42292027 42.38452148 52.86450195 C26.16092963 41.27125321 8.04513591 34.46510198 -11 29 C-9.09847681 22.34291306 -6.91798182 15.87576965 -4.375 9.4375 C-4.06304688 8.63248047 -3.75109375 7.82746094 -3.4296875 6.99804688 C-1.1332676 1.1332676 -1.1332676 1.1332676 0 0 Z " fill="#FEFCFC" transform="translate(576,666)"/>
<path d="M0 0 C3.31473529 1.65736764 3.81662337 5.35937309 5.01953125 8.6875 C5.46199188 9.88356369 5.46199188 9.88356369 5.91339111 11.10379028 C6.55165865 12.83049886 7.18685953 14.55834337 7.81936646 16.28717041 C9.49393153 20.86138876 11.19298678 25.42649264 12.890625 29.9921875 C13.23444717 30.91828827 13.57826935 31.84438904 13.93251038 32.79855347 C17.21198117 41.61267047 20.60958155 50.37758939 24.0625 59.125 C24.32141022 59.78371094 24.58032043 60.44242188 24.84707642 61.12109375 C28.04038016 69.24073128 31.37759194 77.28157326 34.89624023 85.26513672 C36 88 36 88 36 90 C12.24 90 -11.52 90 -36 90 C-32.39683965 80.3915724 -28.78372143 70.85225033 -24.875 61.375 C-20.78274249 51.39461242 -16.74512955 41.3945513 -12.75 31.375 C-8.56714956 20.88837965 -4.34017531 10.42253366 0 0 Z " fill="#FEFDFD" transform="translate(2557,604)"/>
<path d="M0 0 C32.50487805 0 32.50487805 0 41.71484375 8.6015625 C43.27414049 10.33242001 44.65174399 12.10152114 46 14 C46.61875 14.86625 47.2375 15.7325 47.875 16.625 C50.57495703 24.72487108 49.77505082 33.17156088 46.18359375 40.8515625 C41.86774177 48.68561724 35.92817016 52.15758963 27.57421875 54.75390625 C18.37889311 56.79890091 9.56538163 56 0 56 C0 37.52 0 19.04 0 0 Z " fill="#FEFAFA" transform="translate(349,577)"/>
</svg>
